<svg width="35" height="35" viewBox="0 0 35 35" fill="none" xmlns="http://www.w3.org/2000/svg">
<path d="M17.5001 2.91663C9.45008 2.91663 2.91675 9.44996 2.91675 17.5C2.91675 25.55 9.45008 32.0833 17.5001 32.0833C25.5501 32.0833 32.0834 25.55 32.0834 17.5C32.0834 9.44996 25.5501 2.91663 17.5001 2.91663ZM13.548 23.7562L8.31258 18.5208C7.74383 17.952 7.74383 17.0333 8.31258 16.4645C8.88133 15.8958 9.80008 15.8958 10.3688 16.4645L14.5834 20.6645L24.6167 10.6312C25.1855 10.0625 26.1042 10.0625 26.673 10.6312C27.2417 11.2 27.2417 12.1187 26.673 12.6875L15.6042 23.7562C15.0501 24.325 14.1167 24.325 13.548 23.7562Z" fill="#A8E4B1"/>
</svg>
